Coordinates
version=1
nRows=22
nColumns=24
inDegrees=yes

Units are S.I. units (second, meters, Newtons, ...)
Angles are in degrees.

endheader
time	pelvis_tilt	pelvis_list	pelvis_rotation	pelvis_tx	pelvis_ty	pelvis_tz	hip_flexion_r	hip_adduction_r	hip_rotation_r	knee_angle_r	ankle_angle_r	subtalar_angle_r	mtp_angle_r	hip_flexion_l	hip_adduction_l	hip_rotation_l	knee_angle_l	ankle_angle_l	subtalar_angle_l	mtp_angle_l	lumbar_extension	lumbar_bending	lumbar_rotation
      4.51500000	    -11.06222979	      7.87134089	      1.08059915	     -0.26697564	     -0.02367746	      0.66649377	     25.59355201	    -11.83493238	     -1.42037144	    -65.08120298	     -4.69701692	      0.07569793	     13.62268291	     19.53813897	     11.92846425	     -4.88627498	    -18.46033999	      3.51235784	      5.05930342	     11.82129721	      8.92347526	     -9.83582081	     -1.19955699
      4.52000000	    -11.05609814	      7.51705254	      1.47767591	     -0.26085273	     -0.02264859	      0.66598704	     26.26787257	    -11.61380644	     -1.78153471	    -64.64106376	     -4.40743717	      0.26917287	     13.62836330	     18.78727826	     11.77154531	     -4.12973839	    -17.98065149	      3.64004052	      4.86036814	     11.59030776	      8.81987622	     -9.53318780	     -1.75723631
      4.52500000	    -11.04844902	      7.16373311	      1.87383638	     -0.25472852	     -0.02167305	      0.66553593	     26.92054378	    -11.38722638	     -2.14184767	    -64.12297762	     -4.15822697	      0.39758734	     13.59569342	     18.04138980	     11.59469976	     -3.38531806	    -17.50495350	      3.76305718	      4.67908917	     11.36529878	      8.71963763	     -9.23934513	     -2.30733022
      4.53000000	    -11.03148085	      6.82417143	      2.27713946	     -0.24859088	     -0.02075282	      0.66508141	     27.54296859	    -11.18398337	     -2.51644217	    -63.53556253	     -3.95049292	      0.44581974	     13.51817302	     17.28551141	     11.42069843	     -2.63817949	    -17.02441476	      3.87820236	      4.48335699	     11.11670393	      8.61316841	     -8.95912137	     -2.84340442
      4.53500000	    -11.02038301	      6.48558662	      2.67621321	     -0.24248787	     -0.01991412	      0.66466451	     28.15856328	    -10.97415776	     -2.87595307	    -62.88241909	     -3.78204960	      0.42952742	     13.40503581	     16.55339928	     11.22535081	     -1.94018120	    -16.56083096	      4.00549911	      4.32630373	     10.89601542	      8.51006910	     -8.68212047	     -3.38370813
      4.54000000	    -11.02325155	      6.13659517	      3.05865085	     -0.23635394	     -0.01913825	      0.66426869	     28.76708809	    -10.75047667	     -3.23123622	    -62.14825823	     -3.65320073	      0.35907429	     13.26124519	     15.84574397	     10.99575274	     -1.31291515	    -16.10191185	      4.12912806	      4.20340273	     10.70711398	      8.43647719	     -8.38683335	     -3.86360737
      4.54500000	    -10.99988087	      5.82869850	      3.47179550	     -0.23025966	     -0.01843500	      0.66387725	     29.33184248	    -10.58915497	     -3.61333810	    -61.37065388	     -3.55048620	      0.17887478	     13.05582772	     15.10760475	     10.80430865	     -0.61674799	    -15.63517933	      4.26074372	      4.07381973	     10.49121836	      8.32133050	     -8.14650737	     -4.39494818
      4.55000000	    -10.97611559	      5.53706020	      3.86601552	     -0.22416998	     -0.01780534	      0.66352896	     29.88270233	    -10.43709340	     -3.97133231	    -60.53203696	     -3.46580187	     -0.04022753	     12.79873467	     14.37567171	     10.60845571	      0.03752158	    -15.16882676	      4.38734459	      3.94759760	     10.26674657	      8.20772859	     -7.92225888	     -4.89945822
      4.55500000	    -10.90930813	      5.30905332	      4.26912507	     -0.21810179	     -0.01723382	      0.66317633	     30.37370464	    -10.36882171	     -4.33440807	    -59.65846662	     -3.35836444	     -0.25876048	     12.41227824	     13.58372418	     10.47220784	      0.75687931	    -14.68052814	      4.50423352	      3.76567819	      9.93874321	      8.04036308	     -7.76584887	     -5.39683847
      4.56000000	    -10.89706884	      5.04311860	      4.64331454	     -0.21206317	     -0.01678356	      0.66291133	     30.90879489	    -10.23301022	     -4.65876705	    -58.70809653	     -3.30762140	     -0.57535730	     12.01050765	     12.89016437	     10.26341723	      1.32732974	    -14.23820659	      4.66295205	      3.71098670	      9.74306981	      7.93700373	     -7.56753764	     -5.88816567
      4.56500000	    -10.86432596	      4.79809451	      5.00817548	     -0.20601578	     -0.01638782	      0.66266111	     31.40088333	    -10.12627408	     -4.99130553	    -57.70146899	     -3.25597107	     -0.90511772	     11.54326029	     12.17182258	     10.06118749	      1.88112363	    -13.78413559	      4.81018490	      3.65302660	      9.54444248	      7.81154972	     -7.38595886	     -6.35584795
      4.57000000	    -10.82188707	      4.57551474	      5.36646581	     -0.19997149	     -0.01606129	      0.66244202	     31.85909028	    -10.04187777	     -5.31418254	    -56.63585195	     -3.20786344	     -1.25076297	     10.99201051	     11.44911266	      9.86715470	      2.41253384	    -13.33623212	      4.96378773	      3.60274141	      9.34698498	      7.67754823	     -7.22907280	     -6.80998071
      4.57500000	    -10.77066841	      4.36678060	      5.71010661	     -0.19391452	     -0.01580214	      0.66224113	     32.28524227	     -9.97616773	     -5.64397259	    -55.51629811	     -3.14861890	     -1.56990763	     10.32542028	     10.71714909	      9.67220178	      2.92163141	    -12.88330012	      5.11579000	      3.55845093	      9.13724750	      7.53563665	     -7.08003947	     -7.21235909
      4.58000000	    -10.78373650	      4.15057165	      6.00344615	     -0.18789087	     -0.01568533	      0.66213209	     32.77344626	     -9.86734973	     -5.90685261	    -54.32032584	     -3.16099731	     -2.02006640	      9.81083300	     10.08921598	      9.44886729	      3.27649997	    -12.46767883	      5.28418326	      3.58181709	      9.03889543	      7.47234637	     -6.91819533	     -7.60081362
      4.58500000	    -10.72758053	      3.96447267	      6.32206234	     -0.18187638	     -0.01558005	      0.66203089	     33.15063644	     -9.81253652	     -6.22069885	    -53.07475695	     -3.13822724	     -2.43142668	      9.17713926	      9.37920498	      9.24463836	      3.69135671	    -12.04350244	      5.45682817	      3.60523931	      8.91109694	      7.31630220	     -6.79179778	     -8.01742741
      4.59000000	    -10.66282260	      3.80085654	      6.61561457	     -0.17587071	     -0.01554999	      0.66194734	     33.49963051	     -9.77371220	     -6.51657417	    -51.77853690	     -3.09861722	     -2.79564376	      8.45724181	      8.66413041	      9.05239151	      4.07356704	    -11.62250675	      5.63033382	      3.61747667	      8.76788459	      7.15296661	     -6.67728972	     -8.40393894
      4.59500000	    -10.51920192	      3.69887292	      6.90215101	     -0.16988171	     -0.01555852	      0.66187527	     33.74775921	     -9.79887789	     -6.80615921	    -50.47855266	     -2.95434010	     -2.96542173	      7.37217155	      7.84827437	      8.90928808	      4.50624613	    -11.18761554	      5.82710793	      3.60594366	      8.53976392	      6.88721869	     -6.61096098	     -8.81231718
      4.60000000	    -10.49564966	      3.56246277	      7.15224386	     -0.16389315	     -0.01575204	      0.66189606	     34.11036174	     -9.77550626	     -7.09134884	    -49.09194760	     -2.91544125	     -3.31044321	      6.56405129	      7.19826017	      8.72164424	      4.80352872	    -10.79346662	      6.03467010	      3.66969119	      8.42828471	      6.76434356	     -6.52512996	     -9.14424074
      4.60500000	    -10.41979829	      3.43518254	      7.39188661	     -0.15789262	     -0.01594570	      0.66189845	     34.37525820	     -9.75714877	     -7.37229647	    -47.63301560	     -2.82409585	     -3.53164873	      5.72358266	      6.50018406	      8.53283695	      5.09629976	    -10.41755418	      6.23376991	      3.72481692	      8.30403908	      6.58208865	     -6.42623217	     -9.45250942
      4.61000000	    -10.43793517	      3.29195851	      7.58874895	     -0.15186806	     -0.01633001	      0.66196347	     34.73521150	     -9.71590380	     -7.64907808	    -46.11482806	     -2.82275436	     -3.82005225	      5.19619888	      5.91971253	      8.32684921	      5.29477430	    -10.05728247	      6.46236090	      3.78223640	      8.25593624	      6.51553740	     -6.31518583	     -9.73346864
      4.61500000	    -10.35621363	      3.17028777	      7.81929228	     -0.14588158	     -0.01666939	      0.66203869	     34.94433116	     -9.70479305	     -7.96536356	    -44.54442457	     -2.77209569	     -4.02721318	      4.57684318	      5.23608988	      8.12406252	      5.56572975	     -9.70972393	      6.70005665	      3.88061683	      8.19235988	      6.31695173	     -6.22234392	    -10.06156719
      4.62000000	    -10.18718842	      3.11623569	      8.02769729	     -0.13987932	     -0.01701921	      0.66209077	     35.05235576	     -9.76485948	     -8.32278622	    -42.99149421	     -2.64237619	     -4.04457128	      3.65007361	      4.43602395	      7.97927461	      5.81869181	     -9.33937130	      6.92378937	      3.94220842	      8.04278924	      6.01116954	     -6.17329414	    -10.39052645
